<svg width="28" height="28" viewBox="0 0 28 28" fill="none" xmlns="http://www.w3.org/2000/svg">
<path fill-rule="evenodd" clip-rule="evenodd" d="M9.81695 0.911897C8.50171 1.30764 6.31919 2.30417 6.04555 2.63397C5.98324 2.70911 6.01933 2.90076 6.15229 3.20151C6.44793 3.86981 6.4945 4.49908 6.29855 5.17991C6.06688 5.98499 5.24735 6.79906 4.42899 7.0369C3.73262 7.23941 3.05035 7.17504 2.41884 6.84739L1.96432 6.61161L1.56556 7.31025C0.86176 8.54364 0.232899 10.1395 0.0363554 11.1909C-0.0262567 11.5258 -0.0199951 11.5335 0.445878 11.6984C1.74664 12.1585 2.59162 13.6862 2.24823 14.9567C2.0011 15.8709 1.17619 16.7454 0.351471 16.9674C-0.0277234 17.0696 -0.0333012 17.0777 0.0307783 17.4319C0.234463 18.5565 1.48739 21.5161 1.90738 21.8647C2.00042 21.9419 2.14638 21.9175 2.45269 21.7732C2.6827 21.6648 3.00446 21.5488 3.16755 21.5156C3.38943 21.4703 4.18891 20.7281 6.33885 18.5718C7.91991 16.9861 9.22811 15.7033 9.24591 15.7212C9.26382 15.7391 9.30647 16.0364 9.34071 16.3817C9.48325 17.8188 9.5667 17.1425 9.57091 14.5149C9.57335 12.9814 9.60769 11.6769 9.64722 11.616C9.68674 11.5552 10.4856 10.9765 11.4225 10.33L13.1258 9.15461L13.9373 9.08701C14.7776 9.01696 14.9851 9.05825 14.934 9.28542C14.9176 9.3586 14.2548 10.1022 13.4612 10.938C12.6676 11.7737 12.0182 12.5125 12.0182 12.5797C12.0182 12.6469 12.223 13.2176 12.4735 13.8479L12.9289 14.9938L14.1576 15.4888L15.3864 15.9836L15.928 15.466C16.2258 15.1813 16.94 14.4986 17.515 13.949C18.0902 13.3993 18.602 12.9496 18.6526 12.9496C18.8965 12.9496 18.9387 13.2167 18.8258 14.0457C18.6992 14.975 18.8217 14.7542 16.9087 17.4989L16.3632 18.2816L14.5045 18.3081L12.6459 18.3346L9.49499 21.4911C7.52516 23.4644 6.34316 24.7198 6.34179 24.84C6.34061 24.9456 6.25208 25.2251 6.14505 25.461C6.01298 25.752 5.98147 25.9274 6.04702 26.0063C6.38708 26.4161 9.36204 27.6716 10.4668 27.8716C10.8123 27.9341 10.8269 27.9247 10.9465 27.5602C11.2521 26.6294 11.9282 25.9806 12.8813 25.7035C14.2235 25.3134 15.7235 26.0953 16.194 27.4303C16.3704 27.931 16.3741 27.9341 16.7239 27.8786C17.6149 27.7373 19.6926 26.898 20.7868 26.2374L21.2887 25.9344L21.0341 25.4437C20.6912 24.7828 20.6821 23.7851 21.0126 23.0988C21.6908 21.6906 23.3684 21.0992 24.7482 21.7821L25.2076 22.0094L25.5058 21.5152C26.24 20.2982 27.182 17.9028 27.182 17.2525C27.182 17.1312 27.042 17.0293 26.7284 16.9224C25.4404 16.4836 24.6547 15.1168 24.9294 13.7934C25.1346 12.8045 25.926 11.9106 26.8058 11.6737C27.2614 11.5511 27.2661 11.5011 26.9314 10.3435C26.6717 9.44528 26.0241 7.98246 25.5058 7.12338L25.2076 6.62912L24.7029 6.8788C24.2994 7.07838 24.0608 7.1269 23.5134 7.12084C22.6685 7.11135 22.074 6.85082 21.5163 6.24591C20.9718 5.65509 20.7962 5.20564 20.7871 4.37982C20.7809 3.81346 20.8264 3.59519 21.0341 3.19485L21.2887 2.70412L20.7868 2.40132C19.5897 1.67892 17.1572 0.720337 16.5211 0.720337C16.4272 0.720337 16.3041 0.902309 16.2005 1.19405C15.6571 2.72398 13.8454 3.45666 12.3794 2.73944C11.7338 2.42353 11.2041 1.83056 10.98 1.17282C10.8022 0.650973 10.7345 0.635809 9.81695 0.911897Z" fill="#092946"/>
</svg>