<svg width="188" height="50" viewBox="0 0 188 50" fill="none" xmlns="http://www.w3.org/2000/svg">
	<path d="M44.1357 33H49.2771L40.2041 8.71617H34.4756L25.4025 33H30.5083L32.5186 27.3427H42.1254L44.1357 33ZM34.1198 22.8417L37.322 13.8754L40.5243 22.8417H34.1198ZM54.4819 8.71617H49.8208V33H54.4819V8.71617ZM68.6174 33.3202C68.6174 34.7612 68.2794 35.8642 67.5855 36.6292C66.8561 37.4476 65.8243 37.8568 64.4722 37.8568C62.8533 37.8568 61.4123 37.1096 60.167 35.633C59.8823 35.295 59.6333 35.0103 59.4376 34.779L56.3065 37.7856C57.0359 38.6395 57.6052 39.2444 57.9788 39.6002C59.7756 41.2547 61.946 42.0731 64.49 42.0731C66.9273 42.0731 68.9554 41.3437 70.6099 39.8849C72.3889 38.3015 73.2785 36.1133 73.2785 33.3202V16.8464H68.6174V17.7537C67.8346 17.2022 67.1408 16.8108 66.5359 16.5973C65.9133 16.3838 65.2194 16.2771 64.4189 16.2771C62.3374 16.2771 60.5228 16.9887 58.9394 18.4119C57.0537 20.1198 56.1108 22.2902 56.1108 24.9054C56.1108 27.2003 56.8402 29.1573 58.3168 30.794C59.9713 32.6442 61.9994 33.5693 64.4189 33.5693C65.2194 33.5693 65.9133 33.4625 66.5359 33.2491C67.1408 33.0356 67.8346 32.6442 68.6174 32.0927V33.3202ZM64.7391 20.4934C65.7531 20.4934 66.6071 20.8136 67.3187 21.4363C68.2082 22.219 68.653 23.3754 68.653 24.8876C68.653 26.2752 68.2972 27.3605 67.5855 28.1432C66.8384 28.9438 65.8955 29.353 64.7569 29.353C63.7784 29.353 62.9067 29.0328 62.1773 28.3923C61.27 27.5917 60.8074 26.4176 60.8074 24.852C60.8074 23.0908 61.4479 21.8277 62.711 21.0627C63.3337 20.6891 64.0097 20.4934 64.7391 20.4934ZM83.6424 16.2771C81.2585 16.2771 79.2482 17.0243 77.6293 18.5009C75.7613 20.2087 74.8184 22.3258 74.8184 24.852C74.8184 27.1292 75.5478 29.0861 76.9888 30.705C78.6967 32.6086 80.8671 33.5693 83.5001 33.5693C85.7772 33.5693 87.7342 32.8221 89.3709 31.3455C91.2389 29.6554 92.1818 27.5028 92.1818 24.9054C92.1818 22.6816 91.4524 20.7602 90.0114 19.1413C88.2857 17.2377 86.1686 16.2771 83.6424 16.2771ZM83.4645 20.4934C84.5141 20.4934 85.4037 20.8136 86.1331 21.4719C87.0404 22.2546 87.4851 23.3932 87.4851 24.8876C87.4851 26.2575 87.1293 27.3249 86.4177 28.1077C85.6527 28.9438 84.6742 29.353 83.5001 29.353C82.486 29.353 81.6143 29.0328 80.8671 28.3745C79.9598 27.5739 79.515 26.4176 79.515 24.8698C79.515 23.0908 80.1555 21.8277 81.4186 21.0627C82.0413 20.6891 82.7351 20.4934 83.4645 20.4934Z" fill="#092946" />
	<path d="M95.6307 8.71617V33H100.487V22.9485H109.65V33H114.506V8.71617H109.65V18.4475H100.487V8.71617H95.6307ZM128.713 27.3782C127.877 28.7481 126.667 29.4419 125.119 29.4419C123.251 29.4419 122.042 28.4813 121.454 26.5421H133.018C133.036 25.8483 133.054 25.4213 133.054 25.2612C133.054 22.6638 132.324 20.5468 130.866 18.91C129.282 17.1488 127.308 16.2771 124.924 16.2771C122.807 16.2771 120.992 16.9887 119.444 18.4119C117.594 20.1198 116.669 22.2902 116.669 24.9232C116.669 27.2181 117.398 29.1929 118.875 30.8296C120.494 32.662 122.575 33.5693 125.137 33.5693C128.357 33.5693 130.919 32.0393 132.805 28.9972L128.713 27.3782ZM121.454 23.2865C121.97 21.3295 123.145 20.3511 124.941 20.3511C126.631 20.3511 127.788 21.3295 128.428 23.2865H121.454ZM139.273 8.71617H134.612V33H139.273V8.71617ZM141.88 41.5038H146.541V32.0927C147.875 33.0712 149.263 33.5693 150.74 33.5693C152.821 33.5693 154.636 32.8577 156.219 31.4344C158.105 29.7444 159.048 27.5739 159.048 24.941C159.048 23.322 158.656 21.8277 157.873 20.4756C157.126 19.1769 156.094 18.1451 154.796 17.3801C153.533 16.6507 152.181 16.2771 150.74 16.2771C149.263 16.2771 147.875 16.7752 146.541 17.7537V16.8464H141.88V41.5038ZM150.384 20.4934C151.398 20.4934 152.27 20.8136 152.999 21.4541C153.906 22.2546 154.351 23.3932 154.351 24.8698C154.351 26.2575 153.995 27.3427 153.284 28.1077C152.519 28.9438 151.576 29.353 150.455 29.353C149.423 29.353 148.551 29.0328 147.858 28.4101C146.95 27.6095 146.505 26.4709 146.505 24.9766C146.505 23.5889 146.861 22.5037 147.591 21.7031C148.32 20.9026 149.263 20.4934 150.384 20.4934ZM171.618 27.3782C170.781 28.7481 169.572 29.4419 168.024 29.4419C166.156 29.4419 164.946 28.4813 164.359 26.5421H175.923C175.941 25.8483 175.958 25.4213 175.958 25.2612C175.958 22.6638 175.229 20.5468 173.77 18.91C172.187 17.1488 170.212 16.2771 167.828 16.2771C165.711 16.2771 163.897 16.9887 162.349 18.4119C160.499 20.1198 159.574 22.2902 159.574 24.9232C159.574 27.2181 160.303 29.1929 161.78 30.8296C163.398 32.662 165.48 33.5693 168.042 33.5693C171.262 33.5693 173.824 32.0393 175.709 28.9972L171.618 27.3782ZM164.359 23.2865C164.875 21.3295 166.049 20.3511 167.846 20.3511C169.536 20.3511 170.693 21.3295 171.333 23.2865H164.359ZM182.142 16.8464H177.481V33H182.142V25.2078C182.142 23.5711 182.355 22.4503 182.782 21.8277C183.191 21.2228 183.974 20.9204 185.095 20.9204C185.468 20.9204 186.002 20.9559 186.696 21.0093V16.8641C186.056 16.7752 185.522 16.7396 185.077 16.7396C184.027 16.7396 183.049 17.0598 182.142 17.7181V16.8464Z" fill="#0CB3F2" />
	<path fill-rule="evenodd" clip-rule="evenodd" d="M9.81695 1.9119C8.50171 2.30764 6.31919 3.30417 6.04555 3.63397C5.98324 3.70911 6.01933 3.90076 6.15229 4.20151C6.44793 4.86981 6.4945 5.49908 6.29855 6.17991C6.06688 6.98499 5.24735 7.79906 4.42899 8.0369C3.73262 8.23941 3.05035 8.17504 2.41884 7.84739L1.96432 7.61161L1.56556 8.31025C0.86176 9.54364 0.232899 11.1395 0.0363554 12.1909C-0.0262567 12.5258 -0.0199951 12.5335 0.445878 12.6984C1.74664 13.1585 2.59162 14.6862 2.24823 15.9567C2.0011 16.8709 1.17619 17.7454 0.351471 17.9674C-0.0277234 18.0696 -0.0333012 18.0777 0.0307783 18.4319C0.234463 19.5565 1.48739 22.5161 1.90738 22.8647C2.00042 22.9419 2.14638 22.9175 2.45269 22.7732C2.6827 22.6648 3.00446 22.5488 3.16755 22.5156C3.38943 22.4703 4.18891 21.7281 6.33885 19.5718C7.91991 17.9861 9.22811 16.7033 9.24591 16.7212C9.26382 16.7391 9.30647 17.0364 9.34071 17.3817C9.48325 18.8188 9.5667 18.1425 9.57091 15.5149C9.57335 13.9814 9.60769 12.6769 9.64722 12.616C9.68674 12.5552 10.4856 11.9765 11.4225 11.33L13.1258 10.1546L13.9373 10.087C14.7776 10.017 14.9851 10.0582 14.934 10.2854C14.9176 10.3586 14.2548 11.1022 13.4612 11.938C12.6676 12.7737 12.0182 13.5125 12.0182 13.5797C12.0182 13.6469 12.223 14.2176 12.4735 14.8479L12.9289 15.9938L14.1576 16.4888L15.3864 16.9836L15.928 16.466C16.2258 16.1813 16.94 15.4986 17.515 14.949C18.0902 14.3993 18.602 13.9496 18.6526 13.9496C18.8965 13.9496 18.9387 14.2167 18.8258 15.0457C18.6992 15.975 18.8217 15.7542 16.9087 18.4989L16.3632 19.2816L14.5045 19.3081L12.6459 19.3346L9.49499 22.4911C7.52516 24.4644 6.34316 25.7198 6.34179 25.84C6.34061 25.9456 6.25208 26.2251 6.14505 26.461C6.01298 26.752 5.98147 26.9274 6.04702 27.0063C6.38708 27.4161 9.36204 28.6716 10.4668 28.8716C10.8123 28.9341 10.8269 28.9247 10.9465 28.5602C11.2521 27.6294 11.9282 26.9806 12.8813 26.7035C14.2235 26.3134 15.7235 27.0953 16.194 28.4303C16.3704 28.931 16.3741 28.9341 16.7239 28.8786C17.6149 28.7373 19.6926 27.898 20.7868 27.2374L21.2887 26.9344L21.0341 26.4437C20.6912 25.7828 20.6821 24.7851 21.0126 24.0988C21.6908 22.6906 23.3684 22.0992 24.7482 22.7821L25.2076 23.0094L25.5058 22.5152C26.24 21.2982 27.182 18.9028 27.182 18.2525C27.182 18.1312 27.042 18.0293 26.7284 17.9224C25.4404 17.4836 24.6547 16.1168 24.9294 14.7934C25.1346 13.8045 25.926 12.9106 26.8058 12.6737C27.2614 12.5511 27.2661 12.5011 26.9314 11.3435C26.6717 10.4453 26.0241 8.98246 25.5058 8.12338L25.2076 7.62912L24.7029 7.8788C24.2994 8.07838 24.0608 8.1269 23.5134 8.12084C22.6685 8.11135 22.074 7.85082 21.5163 7.24591C20.9718 6.65509 20.7962 6.20564 20.7871 5.37982C20.7809 4.81346 20.8264 4.59519 21.0341 4.19485L21.2887 3.70412L20.7868 3.40132C19.5897 2.67892 17.1572 1.72034 16.5211 1.72034C16.4272 1.72034 16.3041 1.90231 16.2005 2.19405C15.6571 3.72398 13.8454 4.45666 12.3794 3.73944C11.7338 3.42353 11.2041 2.83056 10.98 2.17282C10.8022 1.65097 10.7345 1.63581 9.81695 1.9119Z" fill="#092946" />
</svg>
